<mxfile host="app.diagrams.net" modified="2022-06-26T10:37:36.451Z" agent="5.0 (Windows)" etag="frXhr37SEoMesL4t7R03" version="20.0.3" type="github" pages="2">
  <diagram name="Login and Registration" id="e7e014a7-5840-1c2e-5031-d8a46d1fe8dd">
    <mxGraphModel dx="1240" dy="669" grid="1" gridSize="10" guides="1" tooltips="1" connect="1" arrows="1" fold="1" page="1" pageScale="1" pageWidth="1169" pageHeight="826" background="none" math="0" shadow="0">
      <root>
        <mxCell id="0" />
        <mxCell id="1" parent="0" />
        <mxCell id="2" value="User    " style="swimlane;whiteSpace=wrap" parent="1" vertex="1">
          <mxGeometry x="325" y="128" width="300" height="570" as="geometry" />
        </mxCell>
        <mxCell id="5" value="" style="ellipse;shape=startState;fillColor=#000000;strokeColor=#ff0000;" parent="2" vertex="1">
          <mxGeometry x="60" y="40" width="30" height="30" as="geometry" />
        </mxCell>
        <mxCell id="6" value="" style="edgeStyle=elbowEdgeStyle;elbow=horizontal;verticalAlign=bottom;endArrow=open;endSize=8;strokeColor=#FF0000;endFill=1;rounded=0" parent="2" source="5" target="7" edge="1">
          <mxGeometry x="60" y="40" as="geometry">
            <mxPoint x="75" y="110" as="targetPoint" />
          </mxGeometry>
        </mxCell>
        <mxCell id="n_t1Ct2xbDbUINAxUslM-42" value="" style="edgeStyle=orthogonalEdgeStyle;rounded=0;orthogonalLoop=1;jettySize=auto;html=1;" edge="1" parent="2" source="7" target="n_t1Ct2xbDbUINAxUslM-41">
          <mxGeometry relative="1" as="geometry" />
        </mxCell>
        <mxCell id="7" value="Access Website" style="" parent="2" vertex="1">
          <mxGeometry x="20" y="110" width="110" height="50" as="geometry" />
        </mxCell>
        <mxCell id="n_t1Ct2xbDbUINAxUslM-44" value="" style="edgeStyle=orthogonalEdgeStyle;rounded=0;orthogonalLoop=1;jettySize=auto;html=1;exitX=0.5;exitY=1;exitDx=0;exitDy=0;" edge="1" parent="2" source="n_t1Ct2xbDbUINAxUslM-41" target="n_t1Ct2xbDbUINAxUslM-43">
          <mxGeometry relative="1" as="geometry">
            <mxPoint x="210" y="191" as="sourcePoint" />
            <Array as="points">
              <mxPoint x="210" y="198" />
              <mxPoint x="80" y="198" />
            </Array>
          </mxGeometry>
        </mxCell>
        <mxCell id="n_t1Ct2xbDbUINAxUslM-49" value="Yes" style="edgeLabel;html=1;align=center;verticalAlign=middle;resizable=0;points=[];" vertex="1" connectable="0" parent="n_t1Ct2xbDbUINAxUslM-44">
          <mxGeometry x="-0.3737" y="-1" relative="1" as="geometry">
            <mxPoint as="offset" />
          </mxGeometry>
        </mxCell>
        <mxCell id="n_t1Ct2xbDbUINAxUslM-41" value="Have Account?" style="rhombus;whiteSpace=wrap;html=1;fillColor=rgb(255, 255, 255);strokeColor=rgb(0, 0, 0);fontColor=rgb(0, 0, 0);" vertex="1" parent="2">
          <mxGeometry x="170" y="95" width="80" height="80" as="geometry" />
        </mxCell>
        <mxCell id="n_t1Ct2xbDbUINAxUslM-43" value="Enter Email and Password" style="whiteSpace=wrap;html=1;fillColor=rgb(255, 255, 255);strokeColor=rgb(0, 0, 0);fontColor=rgb(0, 0, 0);" vertex="1" parent="2">
          <mxGeometry x="20" y="241" width="120" height="45" as="geometry" />
        </mxCell>
        <mxCell id="n_t1Ct2xbDbUINAxUslM-50" value="Enter Data, Email and Password" style="whiteSpace=wrap;html=1;fillColor=rgb(255, 255, 255);strokeColor=rgb(0, 0, 0);fontColor=rgb(0, 0, 0);" vertex="1" parent="2">
          <mxGeometry x="170" y="235" width="120" height="60" as="geometry" />
        </mxCell>
        <mxCell id="n_t1Ct2xbDbUINAxUslM-51" value="" style="edgeStyle=orthogonalEdgeStyle;rounded=0;orthogonalLoop=1;jettySize=auto;html=1;exitX=0.5;exitY=0.95;exitDx=0;exitDy=0;exitPerimeter=0;entryX=0.482;entryY=-0.036;entryDx=0;entryDy=0;entryPerimeter=0;" edge="1" parent="1" source="n_t1Ct2xbDbUINAxUslM-46" target="n_t1Ct2xbDbUINAxUslM-50">
          <mxGeometry relative="1" as="geometry">
            <mxPoint x="700" y="400" as="sourcePoint" />
            <mxPoint x="555" y="420" as="targetPoint" />
            <Array as="points">
              <mxPoint x="700" y="320" />
              <mxPoint x="553" y="320" />
            </Array>
          </mxGeometry>
        </mxCell>
        <mxCell id="3" value="System" style="swimlane;whiteSpace=wrap" parent="1" vertex="1">
          <mxGeometry x="625" y="128" width="280" height="640" as="geometry" />
        </mxCell>
        <mxCell id="n_t1Ct2xbDbUINAxUslM-46" value="Create Account" style="whiteSpace=wrap;html=1;fillColor=rgb(255, 255, 255);strokeColor=rgb(0, 0, 0);fontColor=rgb(0, 0, 0);" vertex="1" parent="3">
          <mxGeometry x="43" y="105" width="120" height="60" as="geometry" />
        </mxCell>
        <mxCell id="n_t1Ct2xbDbUINAxUslM-54" value="save data" style="whiteSpace=wrap;html=1;fillColor=rgb(255, 255, 255);strokeColor=rgb(0, 0, 0);fontColor=rgb(0, 0, 0);" vertex="1" parent="3">
          <mxGeometry x="98" y="233" width="120" height="60" as="geometry" />
        </mxCell>
        <mxCell id="n_t1Ct2xbDbUINAxUslM-60" value="" style="edgeStyle=orthogonalEdgeStyle;rounded=0;orthogonalLoop=1;jettySize=auto;html=1;" edge="1" parent="3" source="n_t1Ct2xbDbUINAxUslM-56" target="n_t1Ct2xbDbUINAxUslM-59">
          <mxGeometry relative="1" as="geometry" />
        </mxCell>
        <mxCell id="n_t1Ct2xbDbUINAxUslM-56" value="Validation" style="whiteSpace=wrap;html=1;fillColor=rgb(255, 255, 255);strokeColor=rgb(0, 0, 0);fontColor=rgb(0, 0, 0);" vertex="1" parent="3">
          <mxGeometry x="98" y="325" width="120" height="60" as="geometry" />
        </mxCell>
        <mxCell id="n_t1Ct2xbDbUINAxUslM-65" value="" style="edgeStyle=orthogonalEdgeStyle;rounded=0;orthogonalLoop=1;jettySize=auto;html=1;strokeColor=#3333FF;" edge="1" parent="3" source="n_t1Ct2xbDbUINAxUslM-59" target="n_t1Ct2xbDbUINAxUslM-64">
          <mxGeometry relative="1" as="geometry" />
        </mxCell>
        <mxCell id="n_t1Ct2xbDbUINAxUslM-68" value="Yes" style="edgeLabel;html=1;align=center;verticalAlign=middle;resizable=0;points=[];" vertex="1" connectable="0" parent="n_t1Ct2xbDbUINAxUslM-65">
          <mxGeometry x="-0.3168" relative="1" as="geometry">
            <mxPoint as="offset" />
          </mxGeometry>
        </mxCell>
        <mxCell id="n_t1Ct2xbDbUINAxUslM-59" value="is valid" style="rhombus;whiteSpace=wrap;html=1;fillColor=rgb(255, 255, 255);strokeColor=rgb(0, 0, 0);fontColor=rgb(0, 0, 0);" vertex="1" parent="3">
          <mxGeometry x="118" y="410" width="80" height="80" as="geometry" />
        </mxCell>
        <mxCell id="n_t1Ct2xbDbUINAxUslM-67" value="" style="edgeStyle=orthogonalEdgeStyle;rounded=0;orthogonalLoop=1;jettySize=auto;html=1;strokeColor=#3333FF;" edge="1" parent="3" source="n_t1Ct2xbDbUINAxUslM-64" target="n_t1Ct2xbDbUINAxUslM-66">
          <mxGeometry relative="1" as="geometry" />
        </mxCell>
        <mxCell id="n_t1Ct2xbDbUINAxUslM-64" value="Display Website Travel" style="whiteSpace=wrap;html=1;fillColor=rgb(255, 255, 255);strokeColor=rgb(0, 0, 0);fontColor=rgb(0, 0, 0);" vertex="1" parent="3">
          <mxGeometry x="98" y="523" width="120" height="60" as="geometry" />
        </mxCell>
        <mxCell id="n_t1Ct2xbDbUINAxUslM-66" value="" style="ellipse;shape=startState;fillColor=#000000;strokeColor=#ff0000;" vertex="1" parent="3">
          <mxGeometry x="143" y="602" width="30" height="30" as="geometry" />
        </mxCell>
        <mxCell id="n_t1Ct2xbDbUINAxUslM-55" value="" style="edgeStyle=orthogonalEdgeStyle;rounded=0;orthogonalLoop=1;jettySize=auto;html=1;entryX=0.008;entryY=0.528;entryDx=0;entryDy=0;entryPerimeter=0;exitX=0.994;exitY=0.5;exitDx=0;exitDy=0;exitPerimeter=0;" edge="1" parent="1" source="n_t1Ct2xbDbUINAxUslM-50" target="n_t1Ct2xbDbUINAxUslM-54">
          <mxGeometry relative="1" as="geometry">
            <mxPoint x="635" y="394" as="sourcePoint" />
            <mxPoint x="685" y="393" as="targetPoint" />
          </mxGeometry>
        </mxCell>
        <mxCell id="n_t1Ct2xbDbUINAxUslM-57" value="" style="edgeStyle=orthogonalEdgeStyle;rounded=0;orthogonalLoop=1;jettySize=auto;html=1;exitX=0.496;exitY=0.994;exitDx=0;exitDy=0;exitPerimeter=0;entryX=-0.001;entryY=0.503;entryDx=0;entryDy=0;entryPerimeter=0;" edge="1" parent="1" source="n_t1Ct2xbDbUINAxUslM-43" target="n_t1Ct2xbDbUINAxUslM-56">
          <mxGeometry relative="1" as="geometry">
            <mxPoint x="405" y="410" as="sourcePoint" />
            <mxPoint x="680" y="540" as="targetPoint" />
          </mxGeometry>
        </mxCell>
        <mxCell id="n_t1Ct2xbDbUINAxUslM-62" value="" style="edgeStyle=orthogonalEdgeStyle;rounded=0;orthogonalLoop=1;jettySize=auto;html=1;entryX=0.492;entryY=1.019;entryDx=0;entryDy=0;entryPerimeter=0;" edge="1" parent="1" source="n_t1Ct2xbDbUINAxUslM-59" target="n_t1Ct2xbDbUINAxUslM-43">
          <mxGeometry relative="1" as="geometry">
            <mxPoint x="340" y="392" as="targetPoint" />
          </mxGeometry>
        </mxCell>
        <mxCell id="n_t1Ct2xbDbUINAxUslM-63" value="No" style="edgeLabel;html=1;align=center;verticalAlign=middle;resizable=0;points=[];" vertex="1" connectable="0" parent="n_t1Ct2xbDbUINAxUslM-62">
          <mxGeometry x="-0.4252" relative="1" as="geometry">
            <mxPoint as="offset" />
          </mxGeometry>
        </mxCell>
        <mxCell id="n_t1Ct2xbDbUINAxUslM-47" value="" style="edgeStyle=orthogonalEdgeStyle;rounded=0;orthogonalLoop=1;jettySize=auto;html=1;exitX=1;exitY=0.5;exitDx=0;exitDy=0;entryX=-0.016;entryY=0.463;entryDx=0;entryDy=0;entryPerimeter=0;" edge="1" parent="1" source="n_t1Ct2xbDbUINAxUslM-41" target="n_t1Ct2xbDbUINAxUslM-46">
          <mxGeometry relative="1" as="geometry">
            <mxPoint x="580" y="263" as="sourcePoint" />
            <mxPoint x="640" y="263" as="targetPoint" />
          </mxGeometry>
        </mxCell>
        <mxCell id="n_t1Ct2xbDbUINAxUslM-48" value="No" style="edgeLabel;html=1;align=center;verticalAlign=middle;resizable=0;points=[];" vertex="1" connectable="0" parent="n_t1Ct2xbDbUINAxUslM-47">
          <mxGeometry x="-0.1795" y="-1" relative="1" as="geometry">
            <mxPoint as="offset" />
          </mxGeometry>
        </mxCell>
      </root>
    </mxGraphModel>
  </diagram>
  <diagram id="whfrFx56VCEOETuxKf6r" name="Page-2">
    <mxGraphModel dx="1578" dy="851" grid="1" gridSize="10" guides="1" tooltips="1" connect="1" arrows="1" fold="1" page="1" pageScale="1" pageWidth="1169" pageHeight="827" math="0" shadow="0">
      <root>
        <mxCell id="0" />
        <mxCell id="1" parent="0" />
        <mxCell id="EKaV5HXaCq9Bj85OyfqX-1" value="Thread 1" style="swimlane;whiteSpace=wrap" vertex="1" parent="1">
          <mxGeometry x="164.5" y="128" width="280" height="570" as="geometry" />
        </mxCell>
        <mxCell id="EKaV5HXaCq9Bj85OyfqX-2" value="" style="ellipse;shape=startState;fillColor=#000000;strokeColor=#ff0000;" vertex="1" parent="EKaV5HXaCq9Bj85OyfqX-1">
          <mxGeometry x="100" y="40" width="30" height="30" as="geometry" />
        </mxCell>
        <mxCell id="EKaV5HXaCq9Bj85OyfqX-3" value="" style="edgeStyle=elbowEdgeStyle;elbow=horizontal;verticalAlign=bottom;endArrow=open;endSize=8;strokeColor=#FF0000;endFill=1;rounded=0" edge="1" parent="EKaV5HXaCq9Bj85OyfqX-1" source="EKaV5HXaCq9Bj85OyfqX-2" target="EKaV5HXaCq9Bj85OyfqX-4">
          <mxGeometry x="100" y="40" as="geometry">
            <mxPoint x="115" y="110" as="targetPoint" />
          </mxGeometry>
        </mxCell>
        <mxCell id="EKaV5HXaCq9Bj85OyfqX-4" value="idle" style="" vertex="1" parent="EKaV5HXaCq9Bj85OyfqX-1">
          <mxGeometry x="60" y="110" width="110" height="50" as="geometry" />
        </mxCell>
        <mxCell id="EKaV5HXaCq9Bj85OyfqX-5" value="user action" style="" vertex="1" parent="EKaV5HXaCq9Bj85OyfqX-1">
          <mxGeometry x="60" y="220" width="110" height="50" as="geometry" />
        </mxCell>
        <mxCell id="EKaV5HXaCq9Bj85OyfqX-6" value="" style="endArrow=open;strokeColor=#FF0000;endFill=1;rounded=0" edge="1" parent="EKaV5HXaCq9Bj85OyfqX-1" source="EKaV5HXaCq9Bj85OyfqX-4" target="EKaV5HXaCq9Bj85OyfqX-5">
          <mxGeometry relative="1" as="geometry" />
        </mxCell>
        <mxCell id="EKaV5HXaCq9Bj85OyfqX-7" value="post command" style="" vertex="1" parent="EKaV5HXaCq9Bj85OyfqX-1">
          <mxGeometry x="60" y="325" width="110" height="50" as="geometry" />
        </mxCell>
        <mxCell id="EKaV5HXaCq9Bj85OyfqX-8" value="" style="endArrow=open;strokeColor=#FF0000;endFill=1;rounded=0" edge="1" parent="EKaV5HXaCq9Bj85OyfqX-1" source="EKaV5HXaCq9Bj85OyfqX-5" target="EKaV5HXaCq9Bj85OyfqX-7">
          <mxGeometry relative="1" as="geometry" />
        </mxCell>
        <mxCell id="EKaV5HXaCq9Bj85OyfqX-9" value="" style="edgeStyle=elbowEdgeStyle;elbow=horizontal;strokeColor=#FF0000;endArrow=open;endFill=1;rounded=0" edge="1" parent="EKaV5HXaCq9Bj85OyfqX-1" source="EKaV5HXaCq9Bj85OyfqX-7" target="EKaV5HXaCq9Bj85OyfqX-4">
          <mxGeometry width="100" height="100" relative="1" as="geometry">
            <mxPoint x="160" y="290" as="sourcePoint" />
            <mxPoint x="260" y="190" as="targetPoint" />
            <Array as="points">
              <mxPoint x="30" y="250" />
            </Array>
          </mxGeometry>
        </mxCell>
        <mxCell id="EKaV5HXaCq9Bj85OyfqX-10" value="Thread 2" style="swimlane;whiteSpace=wrap" vertex="1" parent="1">
          <mxGeometry x="444.5" y="128" width="280" height="570" as="geometry" />
        </mxCell>
        <mxCell id="EKaV5HXaCq9Bj85OyfqX-11" value="" style="ellipse;shape=startState;fillColor=#000000;strokeColor=#ff0000;" vertex="1" parent="EKaV5HXaCq9Bj85OyfqX-10">
          <mxGeometry x="60" y="40" width="30" height="30" as="geometry" />
        </mxCell>
        <mxCell id="EKaV5HXaCq9Bj85OyfqX-12" value="" style="edgeStyle=elbowEdgeStyle;elbow=horizontal;verticalAlign=bottom;endArrow=open;endSize=8;strokeColor=#FF0000;endFill=1;rounded=0" edge="1" parent="EKaV5HXaCq9Bj85OyfqX-10" source="EKaV5HXaCq9Bj85OyfqX-11" target="EKaV5HXaCq9Bj85OyfqX-13">
          <mxGeometry x="40" y="20" as="geometry">
            <mxPoint x="55" y="90" as="targetPoint" />
          </mxGeometry>
        </mxCell>
        <mxCell id="EKaV5HXaCq9Bj85OyfqX-13" value="idle" style="" vertex="1" parent="EKaV5HXaCq9Bj85OyfqX-10">
          <mxGeometry x="20" y="110" width="110" height="50" as="geometry" />
        </mxCell>
        <mxCell id="EKaV5HXaCq9Bj85OyfqX-14" value="check for &#xa;new commands" style="" vertex="1" parent="EKaV5HXaCq9Bj85OyfqX-10">
          <mxGeometry x="20" y="220" width="110" height="50" as="geometry" />
        </mxCell>
        <mxCell id="EKaV5HXaCq9Bj85OyfqX-15" value="" style="endArrow=open;strokeColor=#FF0000;endFill=1;rounded=0" edge="1" parent="EKaV5HXaCq9Bj85OyfqX-10" source="EKaV5HXaCq9Bj85OyfqX-13" target="EKaV5HXaCq9Bj85OyfqX-14">
          <mxGeometry relative="1" as="geometry" />
        </mxCell>
        <mxCell id="EKaV5HXaCq9Bj85OyfqX-16" value="command queue" style="" vertex="1" parent="EKaV5HXaCq9Bj85OyfqX-10">
          <mxGeometry x="20" y="325" width="110" height="50" as="geometry" />
        </mxCell>
        <mxCell id="EKaV5HXaCq9Bj85OyfqX-17" value="" style="endArrow=open;strokeColor=#FF0000;endFill=1;rounded=0" edge="1" parent="EKaV5HXaCq9Bj85OyfqX-10" source="EKaV5HXaCq9Bj85OyfqX-14" target="EKaV5HXaCq9Bj85OyfqX-16">
          <mxGeometry relative="1" as="geometry" />
        </mxCell>
        <mxCell id="EKaV5HXaCq9Bj85OyfqX-18" value="queue empty" style="rhombus;fillColor=#ffffc0;strokeColor=#ff0000;" vertex="1" parent="EKaV5HXaCq9Bj85OyfqX-10">
          <mxGeometry x="150" y="225" width="80" height="40" as="geometry" />
        </mxCell>
        <mxCell id="EKaV5HXaCq9Bj85OyfqX-19" value="yes" style="edgeStyle=elbowEdgeStyle;elbow=horizontal;align=left;verticalAlign=bottom;endArrow=open;endSize=8;strokeColor=#FF0000;exitX=0.5;exitY=0;endFill=1;rounded=0;entryX=0.75;entryY=0.5;entryPerimeter=0" edge="1" parent="EKaV5HXaCq9Bj85OyfqX-10" source="EKaV5HXaCq9Bj85OyfqX-18" target="EKaV5HXaCq9Bj85OyfqX-22">
          <mxGeometry x="-1" relative="1" as="geometry">
            <mxPoint x="160" y="150" as="targetPoint" />
            <Array as="points">
              <mxPoint x="190" y="180" />
            </Array>
          </mxGeometry>
        </mxCell>
        <mxCell id="EKaV5HXaCq9Bj85OyfqX-20" value="no" style="edgeStyle=elbowEdgeStyle;elbow=horizontal;align=left;verticalAlign=top;endArrow=open;endSize=8;strokeColor=#FF0000;endFill=1;rounded=0" edge="1" parent="EKaV5HXaCq9Bj85OyfqX-10" source="EKaV5HXaCq9Bj85OyfqX-18" target="EKaV5HXaCq9Bj85OyfqX-24">
          <mxGeometry x="-1" relative="1" as="geometry">
            <mxPoint x="190" y="305" as="targetPoint" />
          </mxGeometry>
        </mxCell>
        <mxCell id="EKaV5HXaCq9Bj85OyfqX-21" value="" style="endArrow=open;strokeColor=#FF0000;endFill=1;rounded=0" edge="1" parent="EKaV5HXaCq9Bj85OyfqX-10" source="EKaV5HXaCq9Bj85OyfqX-14" target="EKaV5HXaCq9Bj85OyfqX-18">
          <mxGeometry relative="1" as="geometry" />
        </mxCell>
        <mxCell id="EKaV5HXaCq9Bj85OyfqX-22" value="" style="shape=line;strokeWidth=6;strokeColor=#ff0000;rotation=90" vertex="1" parent="EKaV5HXaCq9Bj85OyfqX-10">
          <mxGeometry x="130" y="127.5" width="50" height="15" as="geometry" />
        </mxCell>
        <mxCell id="EKaV5HXaCq9Bj85OyfqX-23" value="" style="edgeStyle=elbowEdgeStyle;elbow=horizontal;verticalAlign=bottom;endArrow=open;endSize=8;strokeColor=#FF0000;endFill=1;rounded=0" edge="1" parent="EKaV5HXaCq9Bj85OyfqX-10" source="EKaV5HXaCq9Bj85OyfqX-22" target="EKaV5HXaCq9Bj85OyfqX-13">
          <mxGeometry x="130" y="90" as="geometry">
            <mxPoint x="230" y="140" as="targetPoint" />
          </mxGeometry>
        </mxCell>
        <mxCell id="EKaV5HXaCq9Bj85OyfqX-24" value="dispatch&#xa;command&#xa;worker thread" style="" vertex="1" parent="EKaV5HXaCq9Bj85OyfqX-10">
          <mxGeometry x="140" y="325" width="110" height="50" as="geometry" />
        </mxCell>
        <mxCell id="EKaV5HXaCq9Bj85OyfqX-25" value="critical&#xa;section" style="shape=note;whiteSpace=wrap;size=17" vertex="1" parent="EKaV5HXaCq9Bj85OyfqX-10">
          <mxGeometry x="105" y="490" width="100" height="50" as="geometry" />
        </mxCell>
        <mxCell id="EKaV5HXaCq9Bj85OyfqX-26" value="" style="endArrow=none;strokeColor=#FF0000;endFill=0;rounded=0;dashed=1" edge="1" parent="EKaV5HXaCq9Bj85OyfqX-10" source="EKaV5HXaCq9Bj85OyfqX-16" target="EKaV5HXaCq9Bj85OyfqX-25">
          <mxGeometry relative="1" as="geometry" />
        </mxCell>
        <mxCell id="EKaV5HXaCq9Bj85OyfqX-27" value="" style="whiteSpace=wrap;strokeColor=#FF0000;fillColor=#FF0000" vertex="1" parent="EKaV5HXaCq9Bj85OyfqX-10">
          <mxGeometry x="245" y="395" width="5" height="45" as="geometry" />
        </mxCell>
        <mxCell id="EKaV5HXaCq9Bj85OyfqX-28" value="" style="edgeStyle=elbowEdgeStyle;elbow=horizontal;entryX=0;entryY=0.5;strokeColor=#FF0000;endArrow=open;endFill=1;rounded=0" edge="1" parent="EKaV5HXaCq9Bj85OyfqX-10" source="EKaV5HXaCq9Bj85OyfqX-24" target="EKaV5HXaCq9Bj85OyfqX-27">
          <mxGeometry width="100" height="100" relative="1" as="geometry">
            <mxPoint x="60" y="480" as="sourcePoint" />
            <mxPoint x="160" y="380" as="targetPoint" />
            <Array as="points">
              <mxPoint x="195" y="400" />
            </Array>
          </mxGeometry>
        </mxCell>
        <mxCell id="EKaV5HXaCq9Bj85OyfqX-29" value="Thread 3" style="swimlane;whiteSpace=wrap" vertex="1" parent="1">
          <mxGeometry x="724.5" y="128" width="280" height="570" as="geometry">
            <mxRectangle x="724.5" y="128" width="90" height="30" as="alternateBounds" />
          </mxGeometry>
        </mxCell>
        <mxCell id="EKaV5HXaCq9Bj85OyfqX-30" value="process&#xa;command" style="" vertex="1" parent="EKaV5HXaCq9Bj85OyfqX-29">
          <mxGeometry x="90" y="405" width="110" height="50" as="geometry" />
        </mxCell>
        <mxCell id="EKaV5HXaCq9Bj85OyfqX-31" value="" style="edgeStyle=elbowEdgeStyle;elbow=horizontal;strokeColor=#FF0000;endArrow=open;endFill=1;rounded=0;entryX=0.25;entryY=0.5;entryPerimeter=0" edge="1" parent="EKaV5HXaCq9Bj85OyfqX-29" target="EKaV5HXaCq9Bj85OyfqX-22">
          <mxGeometry width="100" height="100" relative="1" as="geometry">
            <mxPoint x="-30" y="410" as="sourcePoint" />
            <mxPoint x="-120" y="120" as="targetPoint" />
            <Array as="points">
              <mxPoint x="-10" y="135" />
            </Array>
          </mxGeometry>
        </mxCell>
        <mxCell id="EKaV5HXaCq9Bj85OyfqX-32" value="" style="edgeStyle=none;strokeColor=#FF0000;endArrow=open;endFill=1;rounded=0" edge="1" parent="EKaV5HXaCq9Bj85OyfqX-29" target="EKaV5HXaCq9Bj85OyfqX-30">
          <mxGeometry width="100" height="100" relative="1" as="geometry">
            <mxPoint x="-30" y="429.5" as="sourcePoint" />
            <mxPoint x="90" y="429.5" as="targetPoint" />
          </mxGeometry>
        </mxCell>
        <mxCell id="EKaV5HXaCq9Bj85OyfqX-33" value="" style="ellipse;shape=endState;fillColor=#000000;strokeColor=#ff0000" vertex="1" parent="EKaV5HXaCq9Bj85OyfqX-29">
          <mxGeometry x="130" y="500" width="30" height="30" as="geometry" />
        </mxCell>
        <mxCell id="EKaV5HXaCq9Bj85OyfqX-34" value="" style="endArrow=open;strokeColor=#FF0000;endFill=1;rounded=0" edge="1" parent="EKaV5HXaCq9Bj85OyfqX-29" source="EKaV5HXaCq9Bj85OyfqX-30" target="EKaV5HXaCq9Bj85OyfqX-33">
          <mxGeometry relative="1" as="geometry" />
        </mxCell>
        <mxCell id="EKaV5HXaCq9Bj85OyfqX-35" value="" style="endArrow=open;strokeColor=#FF0000;endFill=1;rounded=0" edge="1" parent="1" source="EKaV5HXaCq9Bj85OyfqX-7" target="EKaV5HXaCq9Bj85OyfqX-16">
          <mxGeometry relative="1" as="geometry" />
        </mxCell>
      </root>
    </mxGraphModel>
  </diagram>
</mxfile>
